<?xml version="1.0" encoding="UTF-8"?>
<!DOCTYPE svg PUBLIC "-//W3C//DTD SVG 1.1//EN" "http://www.w3.org/Graphics/SVG/1.1/DTD/svg11.dtd">
<!-- Creator: CorelDRAW 2021.5 -->
<svg xmlns="http://www.w3.org/2000/svg" xml:space="preserve" width="1.1514mm" height="0.6571mm" version="1.1" style="shape-rendering:geometricPrecision; text-rendering:geometricPrecision; image-rendering:optimizeQuality; fill-rule:evenodd; clip-rule:evenodd"
viewBox="0 0 10.96 6.25"
 xmlns:xlink="http://www.w3.org/1999/xlink"
 xmlns:xodm="http://www.corel.com/coreldraw/odm/2003">
 <defs>
  <style type="text/css">
   <![CDATA[
    .fil0 {fill:#FEFEFE}
   ]]>
  </style>
 </defs>
 <g id="Layer_x0020_1">
  <metadata id="CorelCorpID_0Corel-Layer"/>
  <path class="fil0" d="M10.93 0.53c-0.09,-0.28 -0.44,-0.53 -0.75,-0.53l-0.05 0c-0.27,0 -0.34,0.08 -2.5,2.25l-2.15 2.14 -2.14 -2.14c-2.17,-2.17 -2.24,-2.24 -2.51,-2.25l-0.05 0c-0.45,0 -0.83,0.42 -0.78,0.86 0.01,0.08 0.05,0.2 0.08,0.26 0.08,0.16 4.92,4.99 5.07,5.07 0.16,0.08 0.5,0.08 0.67,-0 0.16,-0.08 4.98,-4.9 5.07,-5.07 0.07,-0.14 0.09,-0.43 0.04,-0.59z"/>
 </g>
</svg>
