<?xml version="1.0" encoding="UTF-8"?>
<!DOCTYPE svg PUBLIC "-//W3C//DTD SVG 1.1//EN" "http://www.w3.org/Graphics/SVG/1.1/DTD/svg11.dtd">
<!-- Creator: CorelDRAW 2021.5 -->
<svg xmlns="http://www.w3.org/2000/svg" xml:space="preserve" width="3.1805mm" height="2.722mm" version="1.1" style="shape-rendering:geometricPrecision; text-rendering:geometricPrecision; image-rendering:optimizeQuality; fill-rule:evenodd; clip-rule:evenodd"
viewBox="0 0 10.61 9.08"
 xmlns:xlink="http://www.w3.org/1999/xlink"
 xmlns:xodm="http://www.corel.com/coreldraw/odm/2003">
 <defs>
  <style type="text/css">
   <![CDATA[
    .fil0 {fill:#FEFEFE}
   ]]>
  </style>
 </defs>
 <g id="Layer_x0020_1">
  <metadata id="CorelCorpID_0Corel-Layer"/>
  <g id="_2294822158992">
   <path class="fil0" d="M0.21 0.01c-0.09,0.02 -0.21,0.18 -0.21,0.27 0,0.08 0.05,0.18 0.12,0.23l0.06 0.05 0.69 0.01 0.69 0.01 0.04 0.12c0.02,0.07 0.05,0.18 0.07,0.24 0.02,0.07 0.05,0.16 0.06,0.21 0.02,0.05 0.05,0.18 0.08,0.29 0.1,0.37 0.2,0.7 0.21,0.74 0.01,0.02 0.04,0.14 0.08,0.26 0.03,0.12 0.07,0.26 0.09,0.3 0.02,0.04 0.05,0.16 0.08,0.27 0.03,0.11 0.06,0.21 0.07,0.23 0.01,0.03 0.04,0.15 0.08,0.27 0.03,0.13 0.07,0.24 0.08,0.27 0.01,0.02 0.03,0.09 0.05,0.14 0.02,0.09 0.09,0.31 0.24,0.82 0.02,0.05 0.03,0.12 0.04,0.15 0.01,0.03 0.05,0.18 0.1,0.33 0.04,0.15 0.09,0.29 0.09,0.31 0.01,0.02 0.03,0.11 0.06,0.2 0.14,0.49 0.18,0.63 0.18,0.65 0,0.02 0.01,0.04 0.02,0.05 0.01,0.01 0.04,0.12 0.08,0.25 0.07,0.25 0.12,0.33 0.22,0.37 0.05,0.02 0.55,0.03 2.93,0.03 3.13,0 2.93,0.01 3.03,-0.11 0.04,-0.04 0.05,-0.07 0.05,-0.19 0,-0.13 -0,-0.14 -0.07,-0.2 -0.04,-0.03 -0.1,-0.07 -0.14,-0.08 -0.04,-0.01 -1.29,-0.01 -2.79,-0.01 -1.49,0 -2.71,-0.01 -2.7,-0.01 0.01,-0.01 0,-0.04 -0.01,-0.07 -0.01,-0.03 -0.03,-0.12 -0.05,-0.19 -0.02,-0.07 -0.06,-0.22 -0.1,-0.33 -0.03,-0.11 -0.06,-0.22 -0.05,-0.24 0.01,-0.03 0.3,-0.03 2.78,-0.03 2.7,0 2.77,0 2.84,-0.04 0.13,-0.07 0.18,-0.19 0.14,-0.35 -0.02,-0.09 -0.02,-0.11 0.07,-0.35 0.05,-0.14 0.11,-0.31 0.13,-0.37 0.02,-0.06 0.12,-0.36 0.22,-0.66 0.1,-0.3 0.21,-0.62 0.24,-0.71 0.22,-0.69 0.35,-1.04 0.39,-1.08 0.03,-0.02 0.06,-0.05 0.09,-0.07 0.05,-0.04 0.09,-0.17 0.07,-0.26 -0.01,-0.04 -0.04,-0.1 -0.08,-0.14l-0.06 -0.07 -4 -0.01c-2.58,-0 -4.01,-0.01 -4.02,-0.02 -0.01,-0.01 -0.03,-0.07 -0.05,-0.13 -0.01,-0.06 -0.03,-0.12 -0.04,-0.13 -0.01,-0.01 -0.02,-0.06 -0.03,-0.11 -0.03,-0.11 -0.07,-0.27 -0.2,-0.7 -0.08,-0.29 -0.1,-0.31 -0.17,-0.38l-0.07 -0.07 -0.82 -0c-0.45,-0 -0.83,0 -0.85,0.01zm3.91 2.1c0.01,0.01 0.03,0.14 0.05,0.28 0.02,0.15 0.05,0.4 0.07,0.57 0.02,0.16 0.03,0.3 0.02,0.31 -0.01,0.01 -0.31,0.01 -0.67,0.01l-0.65 -0.01 -0.03 -0.08c-0.01,-0.04 -0.05,-0.18 -0.09,-0.3 -0.03,-0.12 -0.07,-0.24 -0.08,-0.26 -0.03,-0.08 -0.13,-0.45 -0.13,-0.49 0,-0.02 0.01,-0.04 0.01,-0.05 0.02,-0.02 1.45,-0.02 1.48,0zm1.8 0.01c0.02,0.02 0.02,0.19 0.02,0.59l-0.01 0.57 -1.08 0 -0.01 -0.13c-0.03,-0.24 -0.06,-0.51 -0.09,-0.76 -0.03,-0.17 -0.03,-0.26 -0.02,-0.28 0.03,-0.04 1.16,-0.03 1.19,0zm1.79 0c0.01,0.02 -0,0.15 -0.02,0.28 -0.02,0.14 -0.05,0.37 -0.06,0.52 -0.02,0.15 -0.04,0.29 -0.05,0.31l-0.02 0.04 -0.52 -0 -0.52 -0.01 -0.01 -0.58c-0,-0.45 0,-0.58 0.02,-0.59 0.01,-0.01 0.28,-0.02 0.6,-0.02 0.51,0 0.57,0 0.59,0.03zm2.07 -0.02c0.03,0.01 0.04,0.07 0.01,0.07 -0.01,0 -0.02,0.01 -0.02,0.03 0,0.05 -0.18,0.58 -0.2,0.58 -0.01,0 -0.02,0.02 -0.02,0.04 0,0.05 -0.12,0.42 -0.15,0.44 -0.02,0.02 -0.17,0.03 -0.63,0.03 -0.52,0 -0.61,-0 -0.62,-0.03 -0.01,-0.02 -0,-0.09 0.01,-0.17 0.01,-0.08 0.04,-0.32 0.07,-0.54 0.03,-0.22 0.06,-0.42 0.07,-0.43 0.02,-0.02 0.19,-0.02 0.73,-0.02 0.39,0 0.72,0.01 0.74,0.01zm-5.41 1.8c0,0.03 0.02,0.13 0.03,0.25 0.01,0.11 0.03,0.22 0.03,0.23 0.01,0.04 0.07,0.55 0.07,0.62l0 0.06 -0.49 -0c-0.27,-0 -0.5,-0 -0.52,-0.01 -0.02,0 -0.04,-0.04 -0.07,-0.12 -0.02,-0.07 -0.05,-0.18 -0.08,-0.26 -0.03,-0.08 -0.06,-0.21 -0.08,-0.29 -0.02,-0.08 -0.05,-0.17 -0.06,-0.2 -0.04,-0.15 -0.08,-0.28 -0.08,-0.3 0,-0.01 0.24,-0.02 0.62,-0.02l0.62 0 0.01 0.04zm1.57 0.54c0,0.32 -0,0.59 -0.01,0.59 -0.01,0.01 -0.46,0.02 -0.8,0.02 -0.03,0 -0.06,-0.15 -0.1,-0.46 -0.02,-0.13 -0.04,-0.33 -0.06,-0.44 -0.02,-0.11 -0.03,-0.22 -0.03,-0.25l0 -0.04 0.5 0 0.5 0.01 0.01 0.58zm1.56 -0.57c0,0.03 -0.06,0.5 -0.07,0.53 -0,0.02 -0.02,0.16 -0.04,0.33 -0.02,0.16 -0.04,0.31 -0.05,0.31 -0.01,0.01 -0.2,0.02 -0.43,0.02l-0.41 0 -0.01 -0.58c-0,-0.32 0,-0.59 0.01,-0.6 0.01,-0.02 0.12,-0.03 0.5,-0.03 0.27,0 0.49,0.01 0.49,0.01zm1.71 0.02c-0.01,0.02 -0.03,0.09 -0.04,0.15 -0.02,0.06 -0.04,0.12 -0.05,0.12 -0.01,0 -0.02,0.02 -0.02,0.04 0,0.03 -0.1,0.33 -0.13,0.42 -0.01,0.02 -0.04,0.13 -0.08,0.24l-0.06 0.2 -0.39 0c-0.21,0 -0.4,0.01 -0.42,0.01 -0.08,0.02 -0.09,-0.01 -0.06,-0.27 0.02,-0.14 0.04,-0.28 0.05,-0.32 0.01,-0.04 0.03,-0.17 0.04,-0.3 0.01,-0.13 0.03,-0.25 0.03,-0.28l0.01 -0.04 0.57 0c0.53,0 0.57,0 0.56,0.03z"/>
   <path class="fil0" d="M4.55 7.51c-0.11,0.02 -0.21,0.06 -0.25,0.09 -0.01,0.01 -0.03,0.03 -0.04,0.03 -0.02,0 -0.13,0.1 -0.19,0.18 -0.06,0.07 -0.13,0.22 -0.16,0.34 -0.08,0.34 0.14,0.73 0.48,0.86 0.18,0.07 0.3,0.08 0.42,0.06 0.35,-0.08 0.62,-0.36 0.65,-0.71 0.03,-0.28 -0.13,-0.58 -0.38,-0.74 -0.09,-0.06 -0.31,-0.13 -0.39,-0.12 -0.03,0 -0.1,0.01 -0.15,0.02z"/>
   <path class="fil0" d="M8.09 7.51c-0.19,0.06 -0.35,0.17 -0.46,0.33 -0.1,0.15 -0.14,0.3 -0.14,0.47 0,0.13 0.05,0.33 0.08,0.33 0.01,0 0.02,0.01 0.02,0.02 0,0.03 0.12,0.19 0.14,0.19 0.01,0 0.03,0.02 0.06,0.04 0.11,0.11 0.43,0.21 0.57,0.18 0.35,-0.06 0.59,-0.29 0.69,-0.64 0.03,-0.1 0.03,-0.14 0.01,-0.25 -0.02,-0.13 -0.09,-0.31 -0.14,-0.36 -0.02,-0.02 -0.04,-0.04 -0.05,-0.06 -0.03,-0.04 -0.24,-0.19 -0.27,-0.19 -0.01,0 -0.04,-0.01 -0.07,-0.03 -0.08,-0.04 -0.32,-0.05 -0.43,-0.02z"/>
  </g>
 </g>
</svg>
