<?xml version="1.0" encoding="UTF-8"?>
<!DOCTYPE svg PUBLIC "-//W3C//DTD SVG 1.1//EN" "http://www.w3.org/Graphics/SVG/1.1/DTD/svg11.dtd">
<!-- Creator: CorelDRAW 2021.5 -->
<svg xmlns="http://www.w3.org/2000/svg" xml:space="preserve" width="1.4978mm" height="1.4978mm" version="1.1" style="shape-rendering:geometricPrecision; text-rendering:geometricPrecision; image-rendering:optimizeQuality; fill-rule:evenodd; clip-rule:evenodd"
viewBox="0 0 0.91 0.91"
 xmlns:xlink="http://www.w3.org/1999/xlink"
 xmlns:xodm="http://www.corel.com/coreldraw/odm/2003">
 <defs>
  <style type="text/css">
   <![CDATA[
    .fil0 {fill:white}
   ]]>
  </style>
 </defs>
 <g id="Layer_x0020_1">
  <metadata id="CorelCorpID_0Corel-Layer"/>
  <path class="fil0" d="M0.68 0.46c-0,0.13 -0.11,0.24 -0.24,0.24 -0.13,-0 -0.24,-0.11 -0.24,-0.24 -0,-0.13 0.11,-0.24 0.24,-0.24 0.13,0 0.24,0.11 0.24,0.24zm-0.24 0.15c0.08,0 0.15,-0.07 0.15,-0.15 -0,-0.08 -0.07,-0.15 -0.15,-0.15 -0.08,-0 -0.15,0.07 -0.15,0.15 -0,0.08 0.07,0.15 0.15,0.15z"/>
  <g id="_2688986684224">
   <path class="fil0" d="M0.46 0c0.06,0 0.13,-0 0.19,0 0.06,0 0.12,0.01 0.16,0.05 0.06,0.05 0.1,0.11 0.1,0.19 0,0.03 0,0.06 0,0.08 0,0.11 0,0.21 0,0.32 0,0.04 -0.01,0.09 -0.02,0.13 -0.04,0.08 -0.1,0.13 -0.19,0.14 -0.02,0 -0.04,0 -0.05,0 -0.13,0 -0.25,0 -0.38,0 -0.07,-0 -0.13,-0.02 -0.18,-0.06 -0.05,-0.04 -0.08,-0.1 -0.09,-0.17 -0,-0.01 -0,-0.02 -0,-0.03 -0,-0.13 -0,-0.27 0,-0.4 0,-0.07 0.02,-0.14 0.08,-0.19 0.04,-0.04 0.1,-0.06 0.16,-0.07 0.07,-0 0.15,-0 0.22,-0 0,-0 0,-0 0,-0zm-0 0.83c0.06,0 0.12,0 0.18,-0 0.02,-0 0.03,-0 0.05,-0 0.06,-0.01 0.11,-0.04 0.13,-0.1 0.01,-0.03 0.02,-0.06 0.02,-0.09 0,-0.12 0,-0.24 0,-0.36 -0,-0.01 -0,-0.03 -0,-0.04 -0.01,-0.06 -0.03,-0.1 -0.09,-0.13 -0.03,-0.02 -0.06,-0.02 -0.09,-0.02 -0.13,0 -0.26,-0 -0.38,0 -0.01,0 -0.02,0 -0.03,0 -0.06,0.01 -0.11,0.04 -0.14,0.1 -0.01,0.03 -0.01,0.05 -0.01,0.08 0,0.12 -0,0.25 0,0.37 0,0.02 0,0.03 0,0.05 0.01,0.07 0.05,0.11 0.12,0.13 0.02,0.01 0.05,0.01 0.07,0.01 0.06,0 0.12,0 0.18,0z"/>
   <path class="fil0" d="M0.7 0.27c-0.03,-0 -0.05,-0.02 -0.05,-0.05 0,-0.03 0.02,-0.05 0.05,-0.05 0.03,0 0.05,0.02 0.05,0.05 -0,0.03 -0.02,0.05 -0.05,0.05z"/>
  </g>
 </g>
</svg>
