<?xml version="1.0" encoding="UTF-8"?>
<!DOCTYPE svg PUBLIC "-//W3C//DTD SVG 1.1//EN" "http://www.w3.org/Graphics/SVG/1.1/DTD/svg11.dtd">
<!-- Creator: CorelDRAW 2021.5 -->
<svg xmlns="http://www.w3.org/2000/svg" xml:space="preserve" width="14.6867mm" height="6.5188mm" version="1.1" style="shape-rendering:geometricPrecision; text-rendering:geometricPrecision; image-rendering:optimizeQuality; fill-rule:evenodd; clip-rule:evenodd"
viewBox="0 0 136.41 60.55"
 xmlns:xlink="http://www.w3.org/1999/xlink"
 xmlns:xodm="http://www.corel.com/coreldraw/odm/2003">
 <defs>
  <style type="text/css">
   <![CDATA[
    .fil1 {fill:black}
    .fil0 {fill:#FAD700}
   ]]>
  </style>
 </defs>
 <g id="Layer_x0020_1">
  <metadata id="CorelCorpID_0Corel-Layer"/>
  <path class="fil0" d="M26.72 52.23l-0.01 5.92 -6.76 0.62c-0.56,-0.58 -5.38,-5.2 -5.45,-5.4l6.69 -0.61 0.01 -5.99c3.1,-0.38 5.74,-0.18 8.44,-2.19 0.26,-0.19 0.65,-0.57 0.85,-0.68 0.01,0.58 -0.06,5.34 0.05,5.62 0.05,0.11 1.38,1.52 1.61,1.96 -0.8,0.25 -1.69,0.36 -2.67,0.45 -0.47,0.04 -2.41,0.16 -2.76,0.3l-0.01 -0.01zm109.69 -2.15l0 0c-0.92,0 -1.81,0.18 -2.72,0.23 -2.43,0.14 -5.64,0.68 -8.01,0.68 -0.15,0 -1.71,-1.75 -2.04,-1.96l0 2.19 -6.43 0.59c-1.07,0.12 -2.14,0.12 -3.2,0.27 -1.07,0.15 -2.09,0.19 -3.2,0.27 -1.07,0.08 -2.11,0.22 -3.24,0.3 -1.05,0.08 -2.13,0.25 -3.17,0.29 -2.2,0.1 -4.23,0.53 -6.42,0.53 -0.18,0 -1.56,-1.53 -1.88,-1.82 -0.38,-0.34 -0.74,-0.77 -1.15,-1.04l0 3.1c-0.43,0.21 -4.42,0.51 -4.91,0.53 -0.86,0.03 -1.65,0.19 -2.49,0.23 -0.3,0.01 -0.93,0.05 -1.27,0.1 -0.6,0.09 -0.49,0.08 -0.87,-0.31l-1.02 -1.02c-0.08,-0.08 -0.12,-0.1 -0.2,-0.18 -0.01,-0.01 -0.03,-0.03 -0.04,-0.03l-0.66 -0.62c-0.82,-0.77 -2.89,-3.04 -3.5,-3.44l-1.89 6.34 -6.08 0.56c-0.53,0.08 -0.98,0.07 -1.52,0.14 -0.37,0.05 -1.12,0.11 -1.53,0.13l-9.14 0.83c-0.3,0.02 -1.34,0.17 -1.5,0.15 -0.62,-0.08 -2.02,-2.17 -2.65,-2.34l0 2.56 -4.59 0.4c-0.62,0.08 -1.59,0.19 -2.29,0.21 -0.73,0.01 -1.55,0.18 -2.27,0.23l-9.13 0.83c-0.31,-0.08 -1.77,-1.73 -2.17,-2.13l-1.28 -1.21c-3.05,-2.76 -1.23,-2.24 -3.87,-2.02 -0.47,0.04 -1.1,0.15 -1.59,0.15l0 5.97c-0.21,0.01 -0.75,0.06 -1.04,0.1 -1.7,0.22 -3.29,0.24 -4.99,0.45 -0.54,0.07 -1.34,0.16 -1.91,0.2 -1.5,0.12 -1.1,0.19 -2.2,-0.88l-1.13 -1.06c-1.04,-0.91 -2.67,-2.67 -3.76,-3.72 -0.55,-0.52 -1.02,-1.17 -1.53,-1.72 -0.2,-0.21 -0.29,-0.36 -0.49,-0.57 -0.21,-0.22 -0.33,-0.38 -0.53,-0.6 -0.25,-0.27 -0.17,-0.41 -0.16,-0.89l0 -12.91c0,-0.93 0.16,-1.49 -0.24,-1.87l-3.17 -3.1c-1.7,-1.56 -2.82,-2.91 -4.28,-4.56 -0.2,-0.23 -0.29,-0.32 -0.49,-0.56 -0.18,-0.23 -0.27,-0.37 -0.45,-0.6 -1.13,-1.52 -2.09,-3.9 -2.09,-6.51 0,-2.02 0.2,-2.96 0.75,-4.83 0.89,-3.02 3.76,-5.99 6.67,-7.23 3.52,-1.5 7.37,-1.62 10.86,0.05l0 -1.28 7.02 -0.54c0.63,-0.07 1.69,-0.08 2.28,-0.21l1.6 1.58c0.09,0.08 0.11,0.1 0.21,0.16l0 -1.89 3.54 -0.24c1.58,-0.16 4.31,-0.44 5.75,-0.44 0.08,0 1.14,1.14 1.36,1.28 0.23,-0.06 0.54,-0.35 0.79,-0.5 3.07,-1.84 7.05,-2.39 10.53,-1.53l2.43 0.74 0 -1.21 13.15 -1.05c0.9,-0.07 1.74,-0.08 2.63,-0.16 1.65,-0.17 3.53,-0.3 5.22,-0.44 0.19,0.05 1.53,1.42 1.58,1.51 0.56,-0.37 1.1,-0.78 1.71,-1.08 3.5,-1.76 7.4,-2.04 11.04,-0.57 1.89,0.77 2.16,1.45 3.26,2.18l0 -3.4c1.44,0 5.68,-0.56 7.32,-0.6l2.82 -0.21c0.34,-0.03 0.17,-0.03 0.38,0.1 0.78,0.53 1.53,1.67 2.24,2.15 0.1,-0.42 0.25,-0.86 0.38,-1.28 0.11,-0.34 0.29,-0.86 0.37,-1.22l1.26 -0.1c1.25,-0.16 2.43,-0.15 3.71,-0.29 0.71,-0.08 1.7,-0.18 2.43,-0.21 3.44,-0.15 2.17,-0.67 4.59,1.76 0.18,0.18 0.32,0.29 0.5,0.48l4.82 4.92c0.18,0.2 0.23,0.3 0.42,0.49 0.25,0.26 0.8,0.78 0.84,1.12 0.09,0.67 0.01,12.53 0.01,13.52 0.74,0.39 2.42,2.23 3.11,2.93l1.5 1.44c0.01,0.01 0.03,0.03 0.04,0.03 0.69,0.62 1.67,1.55 2.24,2.28 0.44,0.56 0.97,1.05 1.41,1.62 0.23,0.29 0.45,0.49 0.69,0.82 1.67,2.28 2,5.36 0.69,7.97 -0.84,1.69 -1.32,1.8 -1.76,2.47 0.18,0.8 3.79,7.17 4.01,8.08l0.03 0.01zm-55.42 -2.68l6.67 -0.6 0.01 -12.58c0,-0.3 -0.05,-0.64 0.1,-0.88l3.35 -0.33 -0.01 10.58c0,0.5 0.17,0.72 0.66,1.2 0.3,0.3 1.08,1.34 1.4,1.54l-0.01 5.87c-0.56,0.12 -1.52,0.14 -2.09,0.2l-4.16 0.38c-0.65,0.07 -0.56,-0.03 -1.37,-0.84 -1.22,-1.19 -2.25,-2.11 -3.42,-3.37 -0.38,-0.41 -0.83,-0.71 -1.12,-1.17l-0.01 -0zm-62.66 -3.7l-0.01 5.97 -4.94 0.45 0 -17.45 4.6 -0.42c2.73,-0.24 6.51,-0.93 8.84,0.32 1.19,0.64 2.06,1.45 2.48,2.59 0.52,1.4 0.38,2.96 -0.21,4.14 -1.16,2.32 -3.59,3.62 -6.16,3.96 -0.88,0.12 -4.25,0.35 -4.61,0.46l0 -0.01zm28.48 -6.71l1.19 -0.1 3.22 10.4c0.22,0.69 1.43,1.7 2.02,2.59l7.28 -0.64c-0.18,-1.23 -0.86,0.33 0.2,-3.11 0.31,-1 0.56,-2.16 0.94,-3.13 0.16,0.29 0.4,1.17 0.52,1.58 0.29,0.95 0.38,0.69 -0.03,1.56 -0.33,0.71 -0.16,0.66 0.67,1.57l0.5 0.56c0.69,0.75 0.29,0.71 2.04,0.54 1.38,-0.14 5.13,-0.36 5.92,-0.58 0.73,-2.37 1.36,-4.58 2.04,-6.87 0.12,-0.4 1.88,-6.7 2.11,-6.89 0.21,-0.13 2.98,-0.34 3.47,-0.36 0.16,1.1 -0.1,8.81 0.01,10.76 0.02,0.39 0.02,0.32 0.27,0.49 -0.03,0.48 -2.22,7.87 -2.45,8.31 -2.21,0.16 -4.29,0.43 -6.38,0.58 -1.15,0.08 -0.69,0.37 -2.22,-1.15 -0.43,-0.42 -1.39,-1.54 -1.8,-1.76 -0.23,0.36 -0.41,1.23 -0.56,1.72 -0.35,1.21 0.1,0.75 0.23,1.57l-5.88 0.53c-1.1,0.09 -1.19,0.27 -1.71,-0.27 -0.73,-0.76 -1.41,-1.34 -2.16,-2.14l-2.26 -2.13 0 5.07c-0.42,0.11 -5.49,0.52 -6.4,0.6l-8.14 0.73c-2,0.18 -1.22,0.31 -2.45,-0.88l-4.46 -4.38 15.92 -1.45 0.03 -5.6c-0.03,-0.4 -0.49,-0.79 -0.76,-1.1 -0.37,-0.44 -0.24,-0.99 -0.24,-1.69l0.01 -3.79c-0.01,-0.39 -0.1,-0.4 -0.31,-0.64 -0.15,-0.17 -0.25,-0.34 -0.37,-0.51l0 0.02zm-10.42 -2.43l-0.02 2.78 8.23 -0.75 0 3.97 -8.22 0.74 -0.01 2.74 9.22 -0.8 0 3.98 -14.13 1.25c-0.1,-1.34 -0.01,-6.95 -0.01,-8.75l-0.01 -8.16c0,-0.31 -0.05,-0.33 0.1,-0.51l14.04 -1.29c0,1.19 0.03,2.39 0.01,3.55 -0.01,0.58 0.15,0.4 -1.23,0.53l-7.97 0.71 -0.01 0.01zm-28.99 -3.85c0.35,0.14 0.75,0.45 1.09,0.63 1.34,0.73 2.37,0.93 3.94,1.12l0.03 3.23c-0.16,-0.16 -0.43,-0.35 -0.61,-0.53 -0.24,-0.24 -0.43,-0.39 -0.66,-0.62l-3.79 -3.82 0 -0.01zm77.39 -0.49l-0.01 13.47 -4.92 0.44 0 -13.47 -5.71 0.51 0 -3.93c0.43,-0.14 15.95,-1.52 16.31,-1.47l0 3.9 -5.68 0.55 -0 0zm36.78 3.32l1.58 3.22c0.52,1.06 1.18,2.18 1.67,3.28l-5.42 0.55c-0.19,-0.64 -2.65,-5.1 -2.81,-5.71l-3.06 0.25 -0.01 5.99 -4.92 0.44 0 -17.42c0.65,-0.15 5.91,-0.56 7.05,-0.66 2.69,-0.24 5.73,-0.56 7.71,1.45 1.1,1.12 1.69,2.36 1.45,4.18 -0.19,1.45 -1.03,2.76 -2.11,3.63 -0.6,0.49 -0.75,0.51 -1.12,0.8l0 -0.01zm-24.54 -4.42l-0.02 2.74 8.23 -0.72 0 3.97 -8.19 0.74 -0.04 2.74 9.22 -0.8 0 3.96 -14.15 1.28 0 -17.45 14.19 -1.27 -0.03 3.98 -9.19 0.82 -0.01 0zm-28.41 15.99l-5.12 0.49 -3.23 -10.05 -3.15 10.64 -5.05 0.45c-0.27,-0.38 -1.19,-3.68 -1.38,-4.22 -0.47,-1.3 -0.9,-2.88 -1.32,-4.26 -0.31,-0.99 -2.62,-8.1 -2.61,-8.48l5.09 -0.46c0.62,1.55 2.78,9.51 3.22,10.1l3.13 -10.66c0.64,-0.12 1.47,-0.15 2.14,-0.21l2 -0.14c0.02,0.01 0.05,0.01 0.06,0.01 0.01,0 0.04,0.01 0.06,0.01l3.11 9.98c0.18,-0.22 2.1,-6.78 2.42,-7.96 0.2,-0.73 0.51,-1.95 0.81,-2.66l5.07 -0.46c-0.1,0.71 -0.43,1.6 -0.64,2.32 -0.22,0.73 -0.46,1.48 -0.66,2.21 -0.38,1.41 -0.86,2.94 -1.3,4.42 -0.85,2.85 -1.75,5.92 -2.65,8.91l0 -0.01zm56.73 -19.46c0.23,0.1 0.08,-0.01 0.29,0.17l0.62 0.67c0.98,0.95 3.4,3.19 4.16,4.15 0.17,0.22 0.15,0.22 0.38,0.45l1.19 1.38c2.38,3.23 1.15,7.19 -1.77,9.07l2.63 5.25c0.3,0.6 0.67,1.19 0.88,1.8 -1.19,0.03 -5.07,0.42 -6.67,0.58 -0.48,0.05 -0.61,0.14 -0.92,-0.12 -0.69,-0.6 -1.31,-1.36 -2.06,-2.1 -0.72,-0.71 -1.41,-1.35 -2.13,-2.04l-0.03 4.72c-1.21,0.18 -2.53,0.23 -3.74,0.34l-2.76 0.25c-0.41,0 -0.39,-0.16 -0.67,-0.39l-0.15 0.45 -15.94 1.45c-0.48,-0.38 -0.93,-0.91 -1.36,-1.32l-2.72 -2.64c-0.38,-0.45 -1.21,-1.08 -1.33,-1.47 1.99,-0.05 5.62,-0.53 7.91,-0.69 0.93,-0.07 7.61,-0.63 7.96,-0.75 0,-0.05 0,-0.23 0.01,-0.26 0.07,-0.24 -0.01,-0.1 0.14,-0.26 0.12,0.25 0.19,0.3 0.32,0.51l6.78 -0.6c0.19,-0.47 0.05,-5.06 0.07,-5.97l0.77 -0.08c0.17,0.43 1.48,3.12 1.82,3.56 0.11,0.14 0.12,0.12 0.25,0.27l1.25 1.47c0.38,0.5 0.71,0.3 1.63,0.23 1.97,-0.16 4.17,-0.45 6.08,-0.53 -0.11,-0.47 -3.31,-6.43 -3.49,-7.04 0.34,-0.21 0.8,-0.67 1.06,-0.91 0.25,-0.23 0.62,-0.7 0.87,-1.08 1.51,-2.25 1.48,-5.31 -0.38,-7.31l-0.7 -0.81c-0.03,-0.03 -0.23,-0.36 -0.24,-0.37l0 -0.01zm-104.37 -15.55l5.04 -0.4c0,2.82 0,5.62 0,8.44 0,1.28 -0.1,2.66 0.43,3.7 0.99,1.98 3.89,2.07 5.14,-0.38 0.53,-1.04 0.44,-2.48 0.44,-3.79 0,-2.83 0,-5.65 0,-8.47l5.12 -0.39c-0.08,0.69 -0.03,5.54 -0.03,6.67 0,2 0.17,4.44 -0.38,6.28 -2.26,7.5 -13.04,8.55 -15.42,1.19 -0.55,-1.71 -0.39,-4.35 -0.39,-6.27 0,-0.98 -0.11,-6.08 0.05,-6.6l0 0.01zm71.9 4.26c-0.34,2.68 -1.12,4.65 -2.97,6.44 -1.77,1.69 -3.98,2.68 -6.58,2.87 -5.73,0.41 -9.8,-3.95 -9.22,-9.68 0.38,-3.79 2.58,-6.87 5.77,-8.29 3.85,-1.71 8.61,-1.21 11.28,2.19 1.31,1.66 2,4.32 1.73,6.47l-0 0zm-75.79 2.18c-0.25,-0.07 -0.07,0 -0.29,-0.15 -0.8,-0.57 -1.01,-0.87 -2.24,-1.24 -2.85,-0.86 -6.48,0.81 -6.5,4.95 -0.03,4.78 4.62,5.64 7.89,3.17 0.38,-0.29 0.8,-0.75 1.14,-0.92 0.01,0.01 0.03,0.02 0.04,0.05l2.18 3.07c-0.54,0.91 -2.06,2.11 -3.18,2.67 -1.55,0.76 -2.97,1.16 -5.01,1.16 -2.52,0 -4.7,-0.96 -6.19,-2.54 -1.56,-1.67 -2.41,-4.22 -2.27,-6.49 0.16,-2.52 0.85,-4.57 2.4,-6.36 0.64,-0.74 0.65,-0.8 1.51,-1.44 2.52,-1.89 6.14,-2.65 9.2,-1.69 1.35,0.42 2.96,1.39 3.55,2.29l-2.23 3.48 0 -0.02zm89.39 4.88l-3.52 0.28c-0.16,-0.23 -0.6,-1.67 -0.72,-2.03l-2.09 -6.1 -0.01 8.32 -5.08 0.43 0 -18.06 6.47 -0.51 3.15 9.65c0.17,-0.2 1.41,-4.35 1.6,-4.99 0.26,-0.86 0.53,-1.69 0.79,-2.53 0.14,-0.45 0.59,-2.51 0.94,-2.61l3.06 -0.27c1.07,-0.09 2.21,-0.22 3.24,-0.25l0.02 18.1c-0.47,-0.13 -4.27,0.29 -5.08,0.33l0 -8.46c-0.43,1.31 -0.94,2.91 -1.37,4.27 -0.23,0.73 -0.47,1.51 -0.68,2.19 -0.17,0.56 -0.47,1.74 -0.73,2.22l0 0.02zm-39.05 -10.87l-0.02 13.93 -5.1 0.43 0 -13.91 -5.88 0.43 0 -4.09 16.88 -1.34c0,1 0.12,3.33 -0.05,4.16 -0.45,-0.11 -4.94,0.34 -5.82,0.4l0 -0zm-14.74 2.94c-0.51,-0.15 -1.6,-1.21 -4.11,-1.3 -0.82,-0.03 -1.78,0.09 -2.41,0.29 -0.45,0.14 -1.61,0.55 -1.3,1.28 0.54,1.27 5.91,0.48 8.63,2.16 1.08,0.67 1.95,1.64 2.05,3.35 0.14,2.46 -0.92,4.14 -2.7,5.42 -2.88,2.07 -7.54,2.32 -10.93,1.08 -0.97,-0.36 -1.62,-0.69 -2.39,-1.23 -0.24,-0.17 -0.4,-0.36 -0.66,-0.53 0.16,-0.49 2.02,-3.28 2.23,-3.57 0.26,0.08 0.81,0.49 1.14,0.64 2.15,0.97 5.69,1.25 7.49,0.03 0.25,-0.17 0.73,-0.76 0.26,-1.21 -1.37,-1.31 -10.56,0.56 -10.55,-6.14 0.01,-6.38 10.97,-8.09 15.41,-3.78 -0.1,0.32 -1.96,3.03 -2.16,3.51l0 -0zm-25.09 -4.1c0.31,0.25 0.55,0.49 0.85,0.79 0.47,0.47 2.43,2.45 2.64,2.55 0.01,1.95 0,3.91 0,5.86 0,1.04 -0.01,2.64 -1.01,3.33 -0.34,0.23 -0.63,0.4 -1.17,0.43l0 -10.7c0.01,-0.58 0.08,-0.68 -0.5,-1.28 -0.23,-0.25 -0.24,-0.26 -0.42,-0.49 -0.05,-0.06 -0.36,-0.45 -0.4,-0.48l0.01 0zm10.8 -1.2l1.27 1.19c0.25,0.23 0.34,0.25 0.27,0.49 -0.17,-0.01 -0.29,-0.04 -0.47,-0.29 -0.07,-0.1 -0.07,-0.14 -0.14,-0.23 -0.09,-0.12 -0.14,-0.12 -0.23,-0.23l-0.71 -0.91 0 -0.01zm53.77 -0.6c0.27,0.08 1.21,1.13 1.58,1.47 0.16,0.15 0.51,0.27 0.35,0.82l-1.93 -2.28 -0.01 0zm-15.94 -0.4c-0.32,-0.1 -0.29,-0.12 -0.44,-0.34l-1.01 -1.22c0.25,0.1 0.67,0.49 0.81,0.67 0.26,0.32 0.12,0.11 0.4,0.35 0.22,0.18 0.29,0.2 0.23,0.53l0 -0zm29.1 1.25c-0.14,-0.14 -0.03,0.03 -0.16,-0.22l-0.41 -1.25c-0.52,-1.63 -0.36,-1.59 -1.28,-2.65 -0.29,-0.34 -0.52,-0.73 -0.86,-1.04l0.84 0.76c0.57,0.48 1.16,1.19 1.65,1.67 0.28,0.27 0.53,0.51 0.82,0.79l-0.58 1.93 -0.01 -0zm10.36 -6.28c0.08,0.23 3.05,2.97 3.51,3.42 0.3,0.3 0.58,0.56 0.87,0.86 0.16,0.16 0.27,0.32 0.43,0.48l2.12 2.34c0.27,0.41 0.14,5.99 0.14,6.91 0,2.37 0,4.75 0,7.12 -0.82,-0.27 -1.03,-0.57 -2.41,-0.82 -0.91,-0.16 -2.19,-0.25 -3.1,-0.08 -0.08,-5.32 -0.01,-10.96 -0.01,-16.34 0,-0.45 0,-0.91 0,-1.36 0.01,-0.7 0.08,-0.64 -0.34,-1.05 -0.25,-0.24 -1.08,-1.38 -1.22,-1.48l0.01 0z"/>
  <path class="fil1" d="M46.82 36.98c0.12,0.17 0.23,0.34 0.37,0.51 0.2,0.23 0.29,0.24 0.31,0.64l-0.01 3.79c0,0.7 -0.13,1.25 0.24,1.69 0.27,0.32 0.73,0.71 0.76,1.1l-0.03 5.6 -15.92 1.45 4.46 4.38c1.23,1.19 0.45,1.06 2.45,0.88l8.14 -0.73c0.91,-0.08 5.99,-0.49 6.4,-0.6l0 -5.07 2.26 2.13c0.75,0.8 1.43,1.38 2.16,2.14 0.52,0.54 0.61,0.36 1.71,0.27l5.88 -0.53c-0.13,-0.82 -0.58,-0.36 -0.23,-1.57 0.14,-0.49 0.32,-1.36 0.56,-1.72 0.4,0.22 1.37,1.34 1.8,1.76 1.54,1.52 1.07,1.22 2.22,1.15 2.1,-0.14 4.18,-0.41 6.38,-0.58 0.23,-0.45 2.41,-7.83 2.45,-8.31 -0.25,-0.17 -0.25,-0.1 -0.27,-0.49 -0.12,-1.95 0.14,-9.66 -0.01,-10.76 -0.49,0.01 -3.26,0.22 -3.47,0.36 -0.23,0.18 -1.99,6.49 -2.11,6.89 -0.68,2.3 -1.31,4.51 -2.04,6.87 -0.8,0.21 -4.55,0.43 -5.92,0.58 -1.75,0.18 -1.34,0.21 -2.04,-0.54l-0.5 -0.56c-0.83,-0.91 -0.99,-0.86 -0.67,-1.57 0.41,-0.88 0.32,-0.61 0.03,-1.56 -0.12,-0.41 -0.36,-1.29 -0.52,-1.58 -0.38,0.97 -0.63,2.13 -0.94,3.13 -1.06,3.44 -0.38,1.87 -0.2,3.11l-7.28 0.64c-0.59,-0.88 -1.8,-1.9 -2.02,-2.59l-3.22 -10.4 -1.19 0.1 -0 -0.02z"/>
  <path class="fil1" d="M106.48 21.42c0.26,-0.48 0.56,-1.66 0.73,-2.22 0.21,-0.68 0.45,-1.46 0.68,-2.19 0.44,-1.37 0.95,-2.96 1.37,-4.27l0 8.46c0.82,-0.03 4.62,-0.46 5.08,-0.33l-0.02 -18.1c-1.03,0.03 -2.17,0.16 -3.24,0.25l-3.06 0.27c-0.35,0.1 -0.8,2.17 -0.94,2.61 -0.27,0.84 -0.53,1.67 -0.79,2.53 -0.19,0.64 -1.44,4.79 -1.6,4.99l-3.15 -9.65 -6.47 0.51 0 18.06 5.08 -0.43 0.01 -8.32 2.09 6.1c0.12,0.36 0.56,1.8 0.72,2.03l3.52 -0.28 0 -0.02z"/>
  <path class="fil1" d="M125.35 25.64c0.01,0.01 0.21,0.34 0.24,0.37l0.7 0.81c1.85,2 1.89,5.06 0.38,7.31 -0.25,0.38 -0.63,0.85 -0.87,1.08 -0.25,0.24 -0.72,0.69 -1.06,0.91 0.18,0.61 3.38,6.57 3.49,7.04 -1.91,0.08 -4.1,0.38 -6.08,0.53 -0.92,0.08 -1.25,0.27 -1.63,-0.23l-1.25 -1.47c-0.14,-0.15 -0.14,-0.13 -0.25,-0.27 -0.34,-0.44 -1.65,-3.13 -1.82,-3.56l-0.77 0.08c-0.01,0.91 0.12,5.51 -0.07,5.97l-6.78 0.6c-0.13,-0.21 -0.2,-0.26 -0.32,-0.51 -0.15,0.15 -0.07,0.02 -0.14,0.26 -0.01,0.04 -0.01,0.21 -0.01,0.26 -0.34,0.12 -7.03,0.69 -7.96,0.75 -2.29,0.16 -5.93,0.64 -7.91,0.69 0.12,0.38 0.95,1.03 1.33,1.47l2.72 2.64c0.44,0.41 0.88,0.94 1.36,1.32l15.94 -1.45 0.15 -0.45c0.27,0.23 0.26,0.39 0.67,0.39l2.76 -0.25c1.22,-0.11 2.54,-0.16 3.74,-0.34l0.03 -4.72c0.71,0.69 1.41,1.33 2.13,2.04 0.75,0.73 1.36,1.5 2.06,2.1 0.31,0.27 0.44,0.17 0.92,0.12 1.6,-0.16 5.49,-0.55 6.67,-0.58 -0.21,-0.61 -0.58,-1.2 -0.88,-1.8l-2.63 -5.25c2.91,-1.87 4.15,-5.83 1.77,-9.07l-1.19 -1.38c-0.23,-0.23 -0.21,-0.23 -0.38,-0.45 -0.76,-0.96 -3.18,-3.2 -4.16,-4.15l-0.62 -0.67c-0.21,-0.18 -0.06,-0.08 -0.29,-0.17l-0 0.01z"/>
  <path class="fil1" d="M68.61 45.11c0.9,-3 1.8,-6.08 2.65,-8.91 0.45,-1.5 0.92,-3.01 1.3,-4.42 0.2,-0.74 0.44,-1.49 0.66,-2.21 0.21,-0.71 0.54,-1.61 0.64,-2.32l-5.07 0.46c-0.29,0.71 -0.61,1.94 -0.81,2.66 -0.33,1.18 -2.24,7.74 -2.42,7.96l-3.11 -9.98c-0.02,-0.01 -0.05,-0.01 -0.06,-0.01 -0.01,0 -0.04,-0.01 -0.06,-0.01l-2 0.14c-0.67,0.05 -1.5,0.09 -2.14,0.21l-3.13 10.66c-0.44,-0.58 -2.6,-8.55 -3.22,-10.1l-5.09 0.46c-0.01,0.38 2.3,7.49 2.61,8.48 0.43,1.38 0.86,2.96 1.32,4.26 0.2,0.56 1.12,3.85 1.38,4.22l5.05 -0.45 3.15 -10.64 3.23 10.05 5.12 -0.49 -0 0.01z"/>
  <path class="fil1" d="M83.18 19.02c-1.24,0 -2.28,-0.5 -2.94,-1.5 -0.62,-0.95 -0.82,-2.27 -0.74,-3.62 0.35,-5.77 8.47,-6.54 8.02,0.6 -0.15,2.45 -1.76,4.52 -4.34,4.52l-0.01 -0.01zm9.72 -4.66c0.27,-2.15 -0.42,-4.81 -1.73,-6.47 -2.67,-3.39 -7.43,-3.9 -11.28,-2.19 -3.2,1.43 -5.39,4.5 -5.77,8.29 -0.58,5.73 3.5,10.09 9.22,9.68 2.6,-0.18 4.81,-1.17 6.58,-2.87 1.86,-1.78 2.64,-3.76 2.97,-6.44l0 0z"/>
  <path class="fil1" d="M113.52 31.13c0,-0.64 -0.09,-3.09 0.06,-3.51 1.27,-0.07 2.44,-0.21 3.7,-0.32 1.25,-0.12 2.45,0.3 2.34,1.71 -0.1,1.27 -1.28,1.71 -2.32,1.8 -1.15,0.1 -2.62,0.33 -3.79,0.33l0.01 -0.01zm8.05 2.41c0.38,-0.29 0.52,-0.31 1.12,-0.8 1.08,-0.87 1.91,-2.19 2.11,-3.63 0.24,-1.82 -0.35,-3.07 -1.45,-4.18 -1.97,-2.01 -5.01,-1.69 -7.71,-1.45 -1.14,0.1 -6.4,0.51 -7.05,0.66l0 17.42 4.92 -0.44 0.01 -5.99 3.06 -0.25c0.16,0.61 2.62,5.07 2.81,5.71l5.42 -0.55c-0.49,-1.1 -1.15,-2.22 -1.67,-3.28l-1.58 -3.22 -0 0.01z"/>
  <path class="fil1" d="M52.69 13.48c0.2,-0.48 2.06,-3.2 2.16,-3.51 -4.44,-4.31 -15.4,-2.61 -15.41,3.78 -0.01,6.69 9.18,4.83 10.55,6.14 0.47,0.45 -0.01,1.04 -0.26,1.21 -1.8,1.22 -5.34,0.94 -7.49,-0.03 -0.33,-0.14 -0.88,-0.57 -1.14,-0.64 -0.21,0.29 -2.07,3.07 -2.23,3.57 0.26,0.18 0.42,0.36 0.66,0.53 0.77,0.55 1.43,0.88 2.39,1.23 3.4,1.24 8.05,0.99 10.93,-1.08 1.78,-1.28 2.84,-2.96 2.7,-5.42 -0.1,-1.71 -0.97,-2.68 -2.05,-3.35 -2.72,-1.68 -8.1,-0.89 -8.63,-2.16 -0.32,-0.73 0.85,-1.14 1.3,-1.28 0.64,-0.21 1.59,-0.32 2.41,-0.29 2.5,0.08 3.6,1.15 4.11,1.3l0 0z"/>
  <path class="fil1" d="M20.98 10.09c-0.16,0.51 -0.05,5.62 -0.05,6.6 0,1.91 -0.16,4.56 0.39,6.27 2.38,7.36 13.16,6.3 15.42,-1.19 0.56,-1.84 0.38,-4.28 0.38,-6.28 0,-1.13 -0.05,-5.97 0.03,-6.67l-5.12 0.39c0,2.83 0,5.64 0,8.47 0,1.31 0.09,2.75 -0.44,3.79 -1.25,2.44 -4.15,2.35 -5.14,0.38 -0.52,-1.05 -0.43,-2.43 -0.43,-3.7 0,-2.8 0,-5.62 0,-8.44l-5.04 0.4 0 -0.01z"/>
  <polygon class="fil1" points="106.22,28.3 106.24,24.31 92.06,25.59 92.06,43.03 106.22,41.76 106.22,37.79 96.99,38.59 97.03,35.84 105.23,35.11 105.23,31.14 97.01,31.86 97.03,29.12 "/>
  <path class="fil1" d="M44.36 33.85c1.38,-0.14 1.23,0.05 1.23,-0.53 0.02,-1.16 -0.01,-2.37 -0.01,-3.55l-14.04 1.29c-0.15,0.18 -0.1,0.21 -0.1,0.51l0.01 8.16c0,1.8 -0.09,7.41 0.01,8.75l14.13 -1.25 0 -3.98 -9.22 0.8 0.01 -2.74 8.22 -0.74 0 -3.97 -8.23 0.75 0.02 -2.78 7.97 -0.71 0.01 -0.01z"/>
  <path class="fil1" d="M18.34 36.21c0.41,-0.14 3.2,-0.35 3.74,-0.38 1.21,-0.07 2.53,0.27 2.34,1.78 -0.17,1.34 -1.36,1.65 -2.41,1.75 -1.05,0.11 -2.72,0.34 -3.67,0.32l0.01 -3.46zm0 7.48c0.36,-0.11 3.73,-0.34 4.61,-0.46 2.56,-0.34 5,-1.65 6.16,-3.96 0.59,-1.18 0.74,-2.74 0.21,-4.14 -0.43,-1.14 -1.29,-1.95 -2.48,-2.59 -2.33,-1.24 -6.11,-0.55 -8.84,-0.32l-4.6 0.42 0 17.45 4.94 -0.45 0.01 -5.97 0 0.01z"/>
  <path class="fil1" d="M19.32 13.05c-0.58,-0.9 -2.19,-1.87 -3.55,-2.29 -3.06,-0.95 -6.68,-0.21 -9.2,1.69 -0.86,0.64 -0.86,0.7 -1.51,1.44 -1.55,1.79 -2.24,3.83 -2.4,6.36 -0.14,2.27 0.71,4.82 2.27,6.49 1.49,1.58 3.66,2.54 6.19,2.54 2.04,0 3.46,-0.4 5.01,-1.16 1.12,-0.55 2.64,-1.76 3.18,-2.67l-2.18 -3.07c-0.01,-0.03 -0.03,-0.03 -0.04,-0.05 -0.34,0.17 -0.75,0.63 -1.14,0.92 -3.27,2.48 -7.91,1.62 -7.89,-3.17 0.02,-4.14 3.65,-5.82 6.5,-4.95 1.23,0.37 1.45,0.67 2.24,1.24 0.22,0.16 0.03,0.08 0.29,0.15l2.23 -3.48 -0 0.02z"/>
  <path class="fil1" d="M67.44 10.55c0.88,-0.06 5.37,-0.51 5.82,-0.4 0.16,-0.83 0.05,-3.15 0.05,-4.16l-16.88 1.34 0 4.09 5.88 -0.43 0 13.91 5.1 -0.43 0.02 -13.93 0 0z"/>
  <path class="fil1" d="M90.47 29.67l0 -3.9c-0.36,-0.05 -15.87,1.33 -16.31,1.47l0 3.93 5.71 -0.51 0 13.47 4.92 -0.44 0.01 -13.47 5.68 -0.55 0 0z"/>
  <path class="fil1" d="M26.72 52.23c0.35,-0.14 2.3,-0.26 2.76,-0.3 0.97,-0.09 1.88,-0.21 2.67,-0.45 -0.22,-0.43 -1.56,-1.84 -1.61,-1.96 -0.12,-0.27 -0.04,-5.03 -0.05,-5.62 -0.19,0.11 -0.59,0.48 -0.85,0.68 -2.69,2.02 -5.33,1.81 -8.44,2.19l-0.01 5.99 -6.69 0.61c0.08,0.21 4.9,4.83 5.45,5.4l6.76 -0.62 0.01 -5.92 0.01 0.01z"/>
  <path class="fil1" d="M80.99 47.39c0.29,0.46 0.75,0.75 1.12,1.17 1.17,1.26 2.2,2.18 3.42,3.37 0.82,0.8 0.73,0.91 1.37,0.84l4.16 -0.38c0.56,-0.05 1.53,-0.08 2.09,-0.2l0.01 -5.87c-0.32,-0.2 -1.1,-1.23 -1.4,-1.54 -0.49,-0.48 -0.66,-0.7 -0.66,-1.2l0.01 -10.58 -3.35 0.33c-0.16,0.25 -0.1,0.58 -0.1,0.88l-0.01 12.58 -6.67 0.6 0.01 0z"/>
  <path class="fil1" d="M115.7 2.16c0.14,0.1 0.97,1.24 1.22,1.48 0.41,0.4 0.34,0.35 0.34,1.05 -0.01,0.45 0,0.91 0,1.36 0,5.38 -0.08,11.01 0.01,16.34 0.91,-0.17 2.19,-0.08 3.1,0.08 1.38,0.25 1.58,0.56 2.41,0.82 0,-2.37 0,-4.75 0,-7.12 0,-0.91 0.14,-6.49 -0.14,-6.91l-2.12 -2.34c-0.16,-0.16 -0.27,-0.32 -0.43,-0.48 -0.29,-0.31 -0.57,-0.56 -0.87,-0.86 -0.46,-0.45 -3.43,-3.2 -3.51,-3.42l-0.01 -0z"/>
  <path class="fil0" d="M83.18 19.02c2.58,0 4.19,-2.06 4.34,-4.52 0.45,-7.14 -7.67,-6.38 -8.02,-0.6 -0.08,1.36 0.12,2.68 0.74,3.62 0.65,0.99 1.69,1.5 2.94,1.5l0.01 0.01z"/>
  <path class="fil1" d="M27.61 9.38c0.04,0.03 0.35,0.42 0.4,0.48 0.18,0.23 0.18,0.25 0.42,0.49 0.58,0.6 0.51,0.7 0.5,1.28l0 10.7c0.53,-0.03 0.82,-0.18 1.17,-0.43 1,-0.69 1.01,-2.28 1.01,-3.33 0,-1.95 0.01,-3.91 0,-5.86 -0.21,-0.1 -2.17,-2.09 -2.64,-2.55 -0.3,-0.29 -0.53,-0.53 -0.85,-0.79l-0.01 0z"/>
  <path class="fil0" d="M18.34 36.21l-0.01 3.46c0.95,0.03 2.62,-0.21 3.67,-0.32 1.05,-0.11 2.24,-0.41 2.41,-1.75 0.19,-1.51 -1.13,-1.84 -2.34,-1.78 -0.54,0.03 -3.32,0.25 -3.74,0.38z"/>
  <path class="fil0" d="M113.52 31.13c1.16,0.01 2.63,-0.23 3.79,-0.33 1.04,-0.08 2.22,-0.52 2.32,-1.8 0.12,-1.42 -1.08,-1.83 -2.34,-1.71 -1.25,0.12 -2.43,0.25 -3.7,0.32 -0.15,0.42 -0.06,2.87 -0.06,3.51l-0.01 0.01z"/>
  <path class="fil1" d="M11.19 34.53c0.23,0.23 0.42,0.39 0.66,0.62 0.18,0.18 0.46,0.37 0.61,0.53l-0.03 -3.23c-1.58,-0.19 -2.6,-0.39 -3.94,-1.12 -0.34,-0.18 -0.74,-0.49 -1.09,-0.63l3.79 3.82 0 0.01z"/>
  <path class="fil1" d="M105.34 8.43l0.58 -1.93c-0.28,-0.29 -0.53,-0.51 -0.82,-0.79 -0.49,-0.48 -1.08,-1.2 -1.65,-1.67l-0.84 -0.76c0.34,0.31 0.57,0.71 0.86,1.04 0.92,1.06 0.76,1.02 1.28,2.65l0.41 1.25c0.14,0.25 0.03,0.08 0.16,0.22l0.01 0z"/>
  <path class="fil1" d="M94.11 9.88c0.16,-0.54 -0.18,-0.67 -0.35,-0.82 -0.38,-0.34 -1.3,-1.39 -1.58,-1.47l1.93 2.28 0.01 0z"/>
  <path class="fil1" d="M76.24 7.19c0.06,-0.34 -0.01,-0.35 -0.23,-0.53 -0.29,-0.24 -0.14,-0.03 -0.4,-0.35 -0.14,-0.18 -0.56,-0.58 -0.81,-0.67l1.01 1.22c0.14,0.22 0.12,0.24 0.44,0.34l0 0z"/>
  <path class="fil1" d="M38.4 8.19l0.71 0.91c0.09,0.1 0.14,0.11 0.23,0.23 0.08,0.1 0.08,0.14 0.14,0.23 0.18,0.25 0.29,0.29 0.47,0.29 0.07,-0.25 -0.02,-0.26 -0.27,-0.49l-1.27 -1.19 0 0.01z"/>
 </g>
</svg>
