<?xml version="1.0" encoding="UTF-8"?>
<!DOCTYPE svg PUBLIC "-//W3C//DTD SVG 1.1//EN" "http://www.w3.org/Graphics/SVG/1.1/DTD/svg11.dtd">
<!-- Creator: CorelDRAW 2021.5 -->
<svg xmlns="http://www.w3.org/2000/svg" xml:space="preserve" width="79.5194mm" height="79.5194mm" version="1.1" style="shape-rendering:geometricPrecision; text-rendering:geometricPrecision; image-rendering:optimizeQuality; fill-rule:evenodd; clip-rule:evenodd"
viewBox="0 0 17077.82 17077.82"
 xmlns:xlink="http://www.w3.org/1999/xlink"
 xmlns:xodm="http://www.corel.com/coreldraw/odm/2003">
 <defs>
  <style type="text/css">
   <![CDATA[
    .fil1 {fill:black}
    .fil0 {fill:#FAD700;fill-rule:nonzero}
   ]]>
  </style>
 </defs>
 <g id="Layer_x0020_1">
  <metadata id="CorelCorpID_0Corel-Layer"/>
  <g id="_2117663766704">
   <g id="_2704112899264">
    <path class="fil0" d="M8538.91 17077.82c4732.43,0 8538.91,-3806.48 8538.91,-8538.91 0,-4732.43 -3806.48,-8538.91 -8538.91,-8538.91 -4732.43,0 -8538.91,3806.48 -8538.91,8538.91 0,4732.43 3806.48,8538.91 8538.91,8538.91z"/>
    <path class="fil1" d="M8538.91 257.26c4577.91,0 8281.64,3703.35 8281.64,8281.64 0,4577.91 -3703.35,8281.64 -8281.64,8281.64 -4577.91,0 -8281.64,-3703.35 -8281.64,-8281.64 0,-4577.91 3703.35,-8281.64 8281.64,-8281.64zm0 720.42c4166.51,0 7561.22,3395.1 7561.22,7561.22 0,4166.51 -3395.1,7561.22 -7561.22,7561.22 -4166.51,0 -7561.22,-3395.1 -7561.22,-7561.22 0,-4166.51 3395.1,-7561.22 7561.22,-7561.22zm0 822.8c3703.35,0 6738.42,2983.31 6738.42,6738.42 0,3703.35 -3034.69,6738.42 -6738.42,6738.42 -3703.35,0 -6738.42,-2983.31 -6738.42,-6738.42 0,-3703.35 3034.69,-6738.42 6738.42,-6738.42zm3291.95 10956.3c0,0 0,0 -51.37,0l51.37 0zm-4372.01 -1800.1c0,0 0,0 51.37,0 0,0 0,0 -51.37,0zm51.37 51.37c0,0 0,0 51.39,0 0,0 0,0 -51.39,0zm51.39 51.39c0,0 0,0 51.37,0 0,0 0,0 -51.37,0zm102.74 51.37c0,0 0,0 51.37,0 0,0 0,0 -51.37,0zm51.37 0c0,0 0,0 51.39,0 0,0 0,0 -51.39,0zm205.89 102.74c0,0 0,0 51.37,0 0,0 0,0 -51.37,0zm51.37 0c0,0 0,0 51.39,0 0,0 0,0 -51.39,0zm51.39 0c0,0 51.37,0 51.37,0 0,0 -51.37,0 -51.37,0zm51.76 0c0,0 51.37,0 51.37,0 0,0 -51.37,0 -51.37,0zm102.74 0c0,0 51.39,0 51.39,0 0,0 -51.39,0 -51.39,0zm51.39 0c0,0 0,0 51.37,0 0,0 0,0 -51.37,0zm205.87 51.39c0,0 0,0 51.39,0 0,0 0,0 -51.39,0zm205.53 0c0,0 51.37,0 51.37,0 0,0 -51.37,0 -51.37,0zm3446.45 1285.96c0,0 -51.37,51.37 -51.37,51.37 0,0 51.37,-51.37 51.37,-51.37zm-308.64 257.26c0,0 0,0 -51.37,51.37 0,0 0,0 51.37,-51.37zm-205.89 154.5c-51.37,0 -51.37,51.37 -102.76,51.37 51.39,0 51.39,-51.37 102.76,-51.37zm-205.51 154.14c0,0 -51.37,0 -51.37,51.37 0,0 51.37,0 51.37,-51.37zm-308.64 154.52c0,0 -51.39,0 -51.39,0 0,0 51.39,0 51.39,0zm-51.39 51.37c-51.37,51.37 -154.14,51.37 -205.89,102.74 51.39,-51.37 154.14,-51.37 205.89,-102.74zm-205.89 102.74c0,0 -51.37,0 -51.37,0 0,0 51.37,0 51.37,0zm-51.37 51.39c-102.74,51.37 -205.89,102.74 -308.64,102.74 102.74,-51.37 205.89,-51.37 308.64,-102.74zm-360.03 154.5c-102.74,51.39 -154.11,51.39 -257.26,51.39 102.76,0 154.14,-51.39 257.26,-51.39zm-257.26 102.76c0,0 -51.37,0 -51.37,0 0,0 51.37,0 51.37,0zm-51.37 0c-102.76,51.37 -205.89,51.37 -308.64,51.37 102.74,0 205.87,-51.37 308.64,-51.37zm-308.64 51.37c0,0 -51.39,0 -51.39,0 0,0 51.39,0 51.39,0zm-1028.69 -10596.27c1800.49,0 3395.08,874.56 4372.4,2211.89l-2109.14 1645.96c-462.77,-720.04 -1234.56,-1234.56 -2160.51,-1234.56 -1440.07,0 -2571.89,1234.56 -2571.89,2726.03 0,154.14 0,308.66 51.37,462.79l0 0c-102.76,411.38 -205.89,823.16 -205.89,1131.82 0,1903.23 1594.59,3446.45 3651.98,3651.96 -308.66,51.39 -668.66,102.76 -977.32,102.76 -2983.29,0 -5349.7,-2417.78 -5349.7,-5349.7 0,-2931.94 2417.78,-5349.72 5349.7,-5349.72l0 0 -50.98 0.77zm3034.69 9773.47c0,0 0,0 -51.37,0l51.37 0zm-5503.84 -3189.19c0,102.74 -51.39,257.26 -51.39,360.01 0,1903.25 1645.99,3291.95 3446.47,3446.47 1285.96,-257.26 2417.78,-977.3 3189.21,-2005.99l-1851.88 -1285.96c-514.53,720.04 -1337.33,1183.19 -2211.89,1183.19 -1131.82,0 -2109.12,-720.04 -2520.52,-1748.73l0 51.01zm2263.26 -2263.28l617.29 0c565.9,51.39 565.9,925.93 0,977.32l-668.66 0 0 -977.32 51.37 0zm-823.19 -771.79l823.19 0 823.19 0c1388.7,154.14 1388.7,2417.78 51.37,2520.52l-874.56 0 0 1131.82 -823.19 0c0,-925.93 0,-1903.23 0,-2829.16l0 -874.56 0 51.37zm51.76 51.76l0 565.9 565.92 -565.9 -565.92 0z"/>
   </g>
  </g>
 </g>
</svg>
