<?xml version="1.0" encoding="UTF-8"?>
<!DOCTYPE svg PUBLIC "-//W3C//DTD SVG 1.1//EN" "http://www.w3.org/Graphics/SVG/1.1/DTD/svg11.dtd">
<!-- Creator: CorelDRAW 2021.5 -->
<svg xmlns="http://www.w3.org/2000/svg" xml:space="preserve" width="2.8793mm" height="2.8807mm" version="1.1" style="shape-rendering:geometricPrecision; text-rendering:geometricPrecision; image-rendering:optimizeQuality; fill-rule:evenodd; clip-rule:evenodd"
viewBox="0 0 29.27 29.28"
 xmlns:xlink="http://www.w3.org/1999/xlink"
 xmlns:xodm="http://www.corel.com/coreldraw/odm/2003">
 <defs>
  <style type="text/css">
   <![CDATA[
    .fil0 {fill:#FEFEFE}
   ]]>
  </style>
 </defs>
 <g id="Layer_x0020_1">
  <metadata id="CorelCorpID_0Corel-Layer"/>
  <path class="fil0" d="M9.63 0.05c-1.7,0.21 -3.37,0.84 -4.83,1.83 -0.82,0.55 -2.34,2.07 -2.89,2.89 -1.35,2.02 -1.99,4.29 -1.89,6.7 0.03,0.59 0.09,1.29 0.15,1.54 0.48,2.25 1.5,4.16 3.05,5.71 2.09,2.1 4.81,3.22 7.81,3.22 2.02,0 3.87,-0.51 5.55,-1.52l0.79 -0.47 4.52 4.51c2.48,2.48 4.65,4.58 4.82,4.66 0.62,0.32 1.62,0.13 2.12,-0.41 0.44,-0.46 0.58,-1.39 0.34,-2 -0.09,-0.19 -1.77,-1.94 -4.64,-4.82 -2.48,-2.48 -4.52,-4.53 -4.52,-4.55 0,-0.03 0.19,-0.36 0.42,-0.75 2.18,-3.64 2.04,-8.26 -0.36,-11.81 -0.85,-1.26 -2.36,-2.65 -3.71,-3.41 -0.83,-0.46 -1.97,-0.89 -2.96,-1.12 -1.03,-0.23 -2.76,-0.33 -3.75,-0.21zm3.19 3.82c0.72,0.2 1.85,0.74 2.49,1.2 1.39,0.99 2.51,2.76 2.84,4.48 0.45,2.36 -0.24,4.73 -1.89,6.45 -2.44,2.55 -6.26,3.02 -9.24,1.14 -0.63,-0.39 -1.79,-1.56 -2.19,-2.19 -1.47,-2.33 -1.55,-5.25 -0.23,-7.61 1.01,-1.8 3.05,-3.24 5.1,-3.61 0.64,-0.11 2.5,-0.03 3.12,0.13z"/>
 </g>
</svg>
