<?xml version="1.0" encoding="UTF-8"?>
<!DOCTYPE svg PUBLIC "-//W3C//DTD SVG 1.1//EN" "http://www.w3.org/Graphics/SVG/1.1/DTD/svg11.dtd">
<!-- Creator: CorelDRAW 2021.5 -->
<svg xmlns="http://www.w3.org/2000/svg" xml:space="preserve" width="1.3013mm" height="1.4978mm" version="1.1" style="shape-rendering:geometricPrecision; text-rendering:geometricPrecision; image-rendering:optimizeQuality; fill-rule:evenodd; clip-rule:evenodd"
viewBox="0 0 0.73 0.84"
 xmlns:xlink="http://www.w3.org/1999/xlink"
 xmlns:xodm="http://www.corel.com/coreldraw/odm/2003">
 <defs>
  <style type="text/css">
   <![CDATA[
    .fil0 {fill:white;fill-rule:nonzero}
   ]]>
  </style>
 </defs>
 <g id="Layer_x0020_1">
  <metadata id="CorelCorpID_0Corel-Layer"/>
  <path class="fil0" d="M0.38 0c0.05,-0 0.09,-0 0.14,-0 0,0.05 0.02,0.11 0.06,0.15 0.04,0.04 0.09,0.06 0.15,0.06l0 0.14c-0.05,-0 -0.1,-0.01 -0.15,-0.03 -0.02,-0.01 -0.04,-0.02 -0.06,-0.03 -0,0.1 0,0.2 -0,0.31 -0,0.05 -0.02,0.1 -0.05,0.14 -0.05,0.07 -0.13,0.11 -0.21,0.11 -0.05,0 -0.1,-0.01 -0.14,-0.04 -0.07,-0.04 -0.12,-0.12 -0.13,-0.2 -0,-0.02 -0,-0.04 -0,-0.05 0.01,-0.07 0.04,-0.13 0.09,-0.17 0.06,-0.05 0.14,-0.07 0.22,-0.06 0,0.05 -0,0.1 -0,0.16 -0.03,-0.01 -0.08,-0.01 -0.11,0.01 -0.02,0.01 -0.04,0.04 -0.05,0.06 -0.01,0.02 -0.01,0.04 -0,0.06 0.01,0.06 0.06,0.11 0.12,0.1 0.04,-0 0.08,-0.02 0.1,-0.06 0.01,-0.01 0.01,-0.02 0.01,-0.04 0,-0.06 0,-0.13 0,-0.19 0,-0.14 -0,-0.28 0,-0.42l0 0z"/>
 </g>
</svg>
