<?xml version="1.0" encoding="UTF-8"?>
<!DOCTYPE svg PUBLIC "-//W3C//DTD SVG 1.1//EN" "http://www.w3.org/Graphics/SVG/1.1/DTD/svg11.dtd">
<!-- Creator: CorelDRAW 2021.5 -->
<svg xmlns="http://www.w3.org/2000/svg" xml:space="preserve" width="2.0294mm" height="2.4472mm" version="1.1" style="shape-rendering:geometricPrecision; text-rendering:geometricPrecision; image-rendering:optimizeQuality; fill-rule:evenodd; clip-rule:evenodd"
viewBox="0 0 6.06 7.31"
 xmlns:xlink="http://www.w3.org/1999/xlink"
 xmlns:xodm="http://www.corel.com/coreldraw/odm/2003">
 <defs>
  <style type="text/css">
   <![CDATA[
    .fil0 {fill:#FEFEFE}
   ]]>
  </style>
 </defs>
 <g id="Layer_x0020_1">
  <metadata id="CorelCorpID_0Corel-Layer"/>
  <g id="_2294813164288">
   <path class="fil0" d="M2.62 0.04c-0.64,0.16 -1.14,0.65 -1.31,1.28 -0.06,0.22 -0.06,0.68 0.01,0.91 0.15,0.5 0.48,0.9 0.94,1.13 0.28,0.13 0.46,0.18 0.78,0.18 0.32,0 0.5,-0.04 0.78,-0.18 0.46,-0.22 0.79,-0.62 0.94,-1.13 0.04,-0.15 0.05,-0.23 0.05,-0.48 -0,-0.28 -0.01,-0.32 -0.07,-0.52 -0.09,-0.27 -0.2,-0.46 -0.4,-0.67 -0.25,-0.27 -0.51,-0.42 -0.86,-0.52 -0.14,-0.03 -0.29,-0.05 -0.44,-0.05l-0.02 0c-0.13,0 -0.27,0.02 -0.39,0.04zm0.72 0.44c0.23,0.05 0.44,0.18 0.62,0.36 0.74,0.75 0.36,2.01 -0.68,2.23 -0.2,0.04 -0.31,0.04 -0.52,-0 -1.03,-0.21 -1.41,-1.48 -0.67,-2.22 0.18,-0.18 0.4,-0.31 0.61,-0.36 0.18,-0.04 0.46,-0.04 0.64,-0z"/>
   <path class="fil0" d="M2.52 4.1c-0.55,0.1 -1.01,0.31 -1.44,0.67 -0.63,0.52 -1.02,1.29 -1.08,2.13 -0,0.04 -0.01,0.08 -0.01,0.12 -0,0.15 0.03,0.22 0.1,0.26 0.06,0.03 5.79,0.03 5.85,0 0.09,-0.05 0.12,-0.15 0.1,-0.37 -0.11,-1.45 -1.12,-2.56 -2.54,-2.81 -0.22,-0.04 -0.77,-0.04 -0.99,0zm0.96 0.45c0.21,0.04 0.52,0.14 0.7,0.23 0.35,0.17 0.73,0.51 0.96,0.83 0.22,0.32 0.4,0.78 0.44,1.11l0.02 0.14 -5.14 0 0.02 -0.14c0.04,-0.32 0.22,-0.78 0.42,-1.08 0.38,-0.56 1.01,-0.97 1.66,-1.09 0.23,-0.04 0.69,-0.04 0.93,0z"/>
  </g>
 </g>
</svg>
